<svg id="Layer_1" data-name="Layer 1" xmlns="http://www.w3.org/2000/svg" viewBox="0 0 135 135"><defs><style>.cls-1{fill:#4a6f56;}</style></defs><path class="cls-1" d="M113.94,66.74c-5.89-12.29-16.22-18.2-29.88-18.25H82c.33-.69.63-1.25.88-1.83a.72.72,0,0,1,.93-.48c5.55,1,9.8-1.2,13.29-5.31.89-1,.76-1.44-.6-1.71a12.39,12.39,0,0,0-10.72,2.4c-.28.23-.6.42-1.13.8,1.76-4.3,3.41-8.31,5-12.33a.89.89,0,0,1,1.09-.64c5.57.61,9.44-2.16,12.59-6.33.64-.86.46-1.24-.59-1.48a11.5,11.5,0,0,0-3.7-.13,12.16,12.16,0,0,0-9.86,6.73,72,72,0,0,0-2.85,7c-.18.45-.26,1-.78,1.29a1.47,1.47,0,0,1-.11-.25c-.51-5-3.4-8.28-7.54-10.7-.91-.53-1.32-.26-1.36.79a15.56,15.56,0,0,0,.11,3.34,12.41,12.41,0,0,0,7.13,9.18c.76.38.86.7.5,1.43-.47,1-.81,2-1.25,3-.75,1.7-1.19,3.56-2.44,5a1.83,1.83,0,0,1-1.16.75,30.62,30.62,0,0,0-12.37,4.88,1.4,1.4,0,0,1-1.72,0,29.3,29.3,0,0,0-6.16-2.61,37,37,0,0,0-7.94-1.42,1.4,1.4,0,0,1,.33-.93c1.36-2.35,2.75-4.68,4.08-7,.72-1.27.4-1.77-1-1.77-3.11,0-6.23,0-9.35,0-.52,0-1.2-.29-1.53.34s.07,1.14.38,1.66c1.35,2.31,2.67,4.63,4,6.93.4.67.26.86-.51.89a26.59,26.59,0,0,0-4.85.68,31.85,31.85,0,0,0,5.64,63,31,31,0,0,0,19-5.34,1.56,1.56,0,0,1,1.9-.06,31.35,31.35,0,0,0,20,3.7,30.66,30.66,0,0,0,20.38-11.44C118,90.12,119.63,78.6,113.94,66.74Zm-23.11-39a11.25,11.25,0,0,1,10.71-5.17,5.65,5.65,0,0,1,.72.19C99.4,26.38,96,28.62,91.37,28.37,91,28.35,90.31,28.48,90.83,27.71ZM84.3,37.56c-.28.23-.52-.07-.74-.19a11.28,11.28,0,0,1-6-9.86c0-.12,0-.51.14-.63.31-.24.58.11.82.28,3.36,2.35,5.6,5.39,5.88,9.62C84.47,37.05,84.54,37.37,84.3,37.56Zm11.63,2.7c-1.87,3.21-7.66,6.14-11.76,4.79A10.93,10.93,0,0,1,95.93,40.26ZM45.66,41.63h8.47L49.9,48.92Zm9.55,70.06a30.77,30.77,0,0,1-35.64-25A24.24,24.24,0,0,1,19.24,82,30.5,30.5,0,0,1,44.53,51.83a31.19,31.19,0,0,1,19.42,3c.78.38,1.14.68.19,1.31a4.49,4.49,0,0,0-1.34,1.18c-1,1.53-2.1,1.21-3.66.65C49.71,54.55,41,56,33.19,62.3a23.78,23.78,0,0,0-8.76,15.33C23,87.12,26,95.12,33.33,101.35a24.76,24.76,0,0,0,19.07,5.81A25.34,25.34,0,0,0,75.18,85.69c1-6.79-.09-13.19-4.26-18.85A19.69,19.69,0,0,0,68.39,64c-.46-.42-.51-.75,0-1.15.78-.62,1.56-1.24,2.29-1.91s1-.44,1.59.14a29.11,29.11,0,0,1,7,12A30.66,30.66,0,0,1,55.21,111.69Zm6.69-9.13a23.74,23.74,0,0,1-8.22,3,27.48,27.48,0,0,1-4,.28c-.64,0-.84-.22-1.15-.84-.9-1.78-.25-2.74,1.1-4,3.66-3.45,4.23-8,3.49-12.7-.14-.93-.78-.73-1.34-.34a12.08,12.08,0,0,0-5.61,9.65c0,.42,0,.84-.07,1.42a4.85,4.85,0,0,1-1-1.74c-1.59-3.26-3.14-6.54-4.74-9.8a1.29,1.29,0,0,1,.35-1.89A11.22,11.22,0,0,0,44.44,78a17.28,17.28,0,0,0-.21-5.6c-.32-1.35-.7-1.5-1.75-.67A12.6,12.6,0,0,0,39,87.24c1.16,2.3,2.23,4.65,3.48,7.26-1.12-.65-1.94-1.23-2.84-1.63a14.57,14.57,0,0,0-10.28-.45c-.88.24-1.27.11-1.64-.72A24.1,24.1,0,0,1,47.78,57.8a23.39,23.39,0,0,1,11.46,1.73c.8.34.92.59.35,1.32a30.53,30.53,0,0,0-6.51,16.07C52.1,86.73,55.12,95.2,61.9,102.56ZM31.26,96.41a12.68,12.68,0,0,0,11.37.79c.72-.27,1.08-.26,1.43.54.87,2,1.87,4,2.81,5.93a5.48,5.48,0,0,1,.6,2,24.47,24.47,0,0,1-16.88-9.32C30.89,96.06,31.08,96.31,31.26,96.41Zm-1.6-2.82c4.28-1.73,9.62-.66,12.47,2.44C38.48,98.13,32.8,97.14,29.66,93.59Zm17.64,6.82a11,11,0,0,1,4.8-11.26c.51,4.59-.37,8.52-3.89,11.58C47.66,101.21,47.46,101.28,47.3,100.41ZM39.07,84.24a11.06,11.06,0,0,1,4.12-11.45c.79,4.45.15,8.4-3,11.71C39.59,85.1,39.32,85.19,39.07,84.24ZM67,96.47a24,24,0,0,1-.76-31.41c.47-.57.73-.38,1.12,0a21.72,21.72,0,0,1,6.35,12.31A26.29,26.29,0,0,1,74,81.54a23.55,23.55,0,0,1-5,14.87C68.11,97.6,68,97.59,67,96.47ZM81.86,79.56A29.94,29.94,0,0,0,73.62,60.3c-.6-.63-.66-.87.19-1.31,14.41-7.61,32.71,1.48,35.15,17.49A24.24,24.24,0,0,1,89.58,104a17.8,17.8,0,0,1-4.47.34,22.6,22.6,0,0,1-9.61-1.88c-.77-.32-.83-.54-.3-1.22A31.29,31.29,0,0,0,81.86,79.56Zm8.67,30.67a30.27,30.27,0,0,1-19.64-2.92c-.82-.42-1.19-.68-.18-1.38a13.6,13.6,0,0,0,2.17-2.06,1.14,1.14,0,0,1,1.57-.26,23.32,23.32,0,0,0,10.43,2.31,25.55,25.55,0,0,0,6-50.46A25.74,25.74,0,0,0,59.64,75.87a16.75,16.75,0,0,0-.36,3.77c0,7.48,2.39,13.29,7,18.19.73.78.62,1.2-.14,1.73-.27.18-.5.4-.75.6-2.52,1.92-1.81,2-3.89-.41a30.05,30.05,0,0,1,.68-39.62,29.86,29.86,0,0,1,18.39-9.86,30.39,30.39,0,0,1,10,60Z"/></svg>