<svg id="Layer_1" data-name="Layer 1" xmlns="http://www.w3.org/2000/svg" viewBox="0 0 135 135"><defs><style>.cls-1{fill:#4a6f56;}</style></defs><path class="cls-1" d="M110.54,75.19a16.58,16.58,0,0,0-9.79,7c-1.42,2-3.06,3.84-4.65,5.8-.08-.19-.14-.26-.13-.32,1.39-5.93-.79-10.78-4.62-15.12-1-1.11-1.48-1-2,.36a14.83,14.83,0,0,0,4.14,17c.67.6.35.91,0,1.34-1.75,2.18-3.49,4.36-5.27,6.51a5,5,0,0,1-2.06,1.65,3.68,3.68,0,0,1-.23-.56C84.57,92,83.21,85.22,81.8,78.44c-.17-.83.09-1.15.81-1.52a10,10,0,0,0,5.21-10.74C86,56.89,84.06,47.62,82.24,38.33c-.25-1.26-.81-1.22-1.78-1-5.52,1.17-11.06,2.3-16.59,3.45-.74.15-1,0-.82-.83.42-2.39.68-4.8,1.09-7.19.13-.76,0-1-.78-1.06-2.91-.42-5.81-.91-8.72-1.36-3.15-.49-6.29-1-9.44-1.46-.78-.12-1.18.08-1.24.95s-.3,2-.45,2.95C42.29,40.86,41.1,49,39.83,57.07,39,62.38,40.9,66.35,45.64,68.7A1,1,0,0,1,46.28,70c-.4,2.39-.76,4.79-1.12,7.19Q44.07,84.4,43,91.59c-.08.48-.24.67-.79.61a13.6,13.6,0,0,0-4.76.14,1.15,1.15,0,0,1-1.25-.45c-1.16-1.37-2.28-2.77-3.48-4.11-.6-.66-.56-1,.08-1.71A9.68,9.68,0,0,0,35.15,75.6c-.17-.48-.24-1.09-.84-1.2s-.93.37-1.26.78a11.61,11.61,0,0,0-3,9.27c-1.26-1.57-2.43-2.92-3.48-4.35A10.25,10.25,0,0,0,14,77.47c-.81.48-.87,1.06-.17,1.59,3.17,2.41,6.64,3.62,10.6,2.23a1.22,1.22,0,0,1,1.62.44c1.45,1.84,3,3.65,4.42,5.49.2.26.67.55.39.91s-.67.08-1,0a9.61,9.61,0,0,0-7.23,1.18c-.92.51-1,1-.17,1.6,3.36,2.28,6.94,3.17,10.86,1.54a1.77,1.77,0,0,1,2.4,1.15c.15,1.25,1,1.64,1.92,2.05a21.07,21.07,0,0,0,5.62,1.57,22.63,22.63,0,0,0,7.48.34c.85-.15,1.83-.29,2-1.35s-.62-1.4-1.32-1.79a12.47,12.47,0,0,0-3.82-1.32c-1-.18-1.16-.58-1-1.45Q48.3,81.11,49.9,70.54c.11-.73.3-1,1.06-1a10.12,10.12,0,0,0,8.73-7.89c.62-3.2,1-6.45,1.51-9.67.41-2.61.81-5.23,1.24-8a2.09,2.09,0,0,1,.19.4c1.69,8.31,3.4,16.6,5,24.92a10.48,10.48,0,0,0,7.07,8.44c1.09.4,2.62-.06,3.26.94s.59,2.28.83,3.45q1.83,9,3.68,18c.17.81,0,1.19-.87,1.39a14.18,14.18,0,0,0-3.13,1.15c-1,.45-2.2,1-1.92,2.26s1.63,1.25,2.68,1.28A29.87,29.87,0,0,0,90.81,104,5.43,5.43,0,0,0,93,102.58a1.2,1.2,0,0,0-.48-2.09,4,4,0,0,0-1.64-.3c-1,0-2.07,0-3.29,0a5,5,0,0,0,.83-.75C89.4,98,90.32,98,92,98.68c5.79,2.54,11.13.93,16.11-2.44.78-.53.68-1.09-.25-1.64a15.47,15.47,0,0,0-7.35-2.26A16.54,16.54,0,0,0,93.21,94a1.23,1.23,0,0,1,.06-.31q4.94-6.09,9.84-12.19c.4-.49.71-.33,1.13-.16,6.22,2.56,11.69.8,16.77-3,.87-.65.79-1.24-.16-1.72A14.65,14.65,0,0,0,110.54,75.19Zm-95,3.31c2.34-1.59,6.89-.72,8.64,1.31C22.12,81.29,17.67,80.4,15.56,78.5ZM33.4,76.93c.1-.16.3-.35.45-.35.31,0,.26.33.31.56a6.28,6.28,0,0,1,.24,1.69,8.62,8.62,0,0,1-2.08,5.78c-.14.17-.37.4-.55.39s-.23-.36-.28-.57C30.82,81.59,31.81,79.18,33.4,76.93ZM24.16,90.27c2.38-1.78,6.5-1.2,8.68.73C30.67,92.47,26.52,92.12,24.16,90.27Zm34.7-32.36c-.31,2-.36,4.07-1.47,5.86A8.43,8.43,0,0,1,50,68.15c-.87,0-1.22.21-1.36,1.16-1,7.24-2.19,14.47-3.3,21.71a9.61,9.61,0,0,1-.31,1.87c-.32.91.13,1.1.86,1.23A12.48,12.48,0,0,1,51.05,96a24,24,0,0,1-13.61-2.1,10.68,10.68,0,0,1,5.17-.25c1,.16,1.46,0,1.62-1.17,1-6.54,2-13,3-19.58.21-1.38.37-2.76.59-4.14.08-.51,0-.75-.57-.92a8.91,8.91,0,0,1-6.14-10.51c.3-1.64.6-3.29.76-5a1.91,1.91,0,0,1,1.73-1.87,2.52,2.52,0,0,1,2.73.66A8.72,8.72,0,0,1,47.8,53.9a17.47,17.47,0,0,0,1.4,3.16c1,1.6,2.22,1.9,3.85.92a9.64,9.64,0,0,1,4.45-1.59C58.86,56.32,59.07,56.59,58.86,57.91ZM62.58,34q-1.55,10-3,19.92c-.12.77-.22,1.23-1.28,1.09a8.6,8.6,0,0,0-5.64,1.53c-1.31.79-1.73.71-2.41-.67-.47-1-.82-2-1.22-3a10.26,10.26,0,0,0-1.23-2.31A3.36,3.36,0,0,0,44.62,49a2.73,2.73,0,0,0-.95,0c-1.22.49-1.24-.14-1.1-1q1.3-8.37,2.58-16.74c.09-.6.17-.91.94-.78q7.83,1.26,15.68,2.4C62.61,33,62.7,33.28,62.58,34Zm4.65,26.16C66.08,54.43,64.94,48.7,63.77,43c-.1-.51-.14-.82.48-.95q8-1.58,15.91-3.19a2.84,2.84,0,0,0,.3-.08c.54-.06.52.44.6.79q1.81,8.88,3.6,17.77c.21,1,.74,2.13.48,3s-1.67.69-2.49,1.21A10.64,10.64,0,0,0,79.76,64c-1.23,1.61-1.59,1.6-3.07.15a32.2,32.2,0,0,0-3.41-3.5,3.9,3.9,0,0,0-5.06-.1C67.53,61.05,67.36,60.81,67.23,60.16Zm24.49,41.69a25.83,25.83,0,0,1-13.62,2.88,4.23,4.23,0,0,1,2.36-1.42,16.26,16.26,0,0,1,3-.89c.82-.14.86-.55.73-1.16q-2.4-11.81-4.82-23.62c-.09-.43-.13-.87-.84-.92-6-.45-8.42-2.6-9.58-8.35-.28-1.41-.49-2.83-.86-4.21a1.87,1.87,0,0,1,.72-2.28,2.71,2.71,0,0,1,3-.48A9.41,9.41,0,0,1,74.56,64a12.93,12.93,0,0,0,2,2.05c1.47,1.11,2.87.86,4-.71a7.62,7.62,0,0,1,4.27-3.07c.37-.1.73-.24.83.3.46,2.33,1.32,4.62.8,7.06a8.61,8.61,0,0,1-5.53,6.56c-.72.29-.89.62-.74,1.33Q82.6,89.19,85,100.88c.2,1.05.75,1.09,1.59,1A11.33,11.33,0,0,1,91.72,101.85Zm15-6.27c-4.65,2.89-9.36,4-14.5,1.75-.57-.25-1-.39-.19-1A13.33,13.33,0,0,1,106.67,95.58ZM94.46,88a4.17,4.17,0,0,1-.27.62c-3.89-3.29-5.6-9.39-4-14,.13-.37.2-1.19.85-.38C94.36,78.29,96,82.75,94.46,88Zm25-10.43c-3.74,3.47-10.6,4.76-14.9,2.34C108.68,76.06,114.94,75.1,119.5,77.55Z"/></svg>