<svg id="Layer_1" data-name="Layer 1" xmlns="http://www.w3.org/2000/svg" viewBox="0 0 135 135"><defs><style>.cls-1{fill:#4a6f56;}</style></defs><path class="cls-1" d="M102.19,58.24c-1.13,3.52-2.1,7.09-3.14,10.64-1.26-6.28-5.19-10.29-10.71-13-1.3-.64-1.79-.32-1.76,1.09.13,6.69,3.33,11.39,9.3,14.27.68.32,1.79.44,2,.93s-.26,1.5-.52,2.25c-.9,2.67-1.46,5.47-2.59,8.07-.6,1.38-.64,1.34-1.7.35A17.43,17.43,0,0,0,81.65,78c-1.13,0-1.37-.37-1.37-1.43,0-9.42,0-18.84,0-28.26A3.5,3.5,0,0,0,80,46.56c-2-3.82-3.87-7.7-6-11.46-3.75-6.74-3.8-6.71-3.74-14.42v-.12c-.14-.84.21-1.15,1-1.07.47,0,1.08.22,1.09-.66s-.65-.77-1.16-.72c-.81.07-1-.27-1-1,.06-1.16,0-2.32,0-3.47,0-.5,0-.85-.69-.85s-.74.28-.73.81c0,1.16,0,2.32,0,3.47,0,.73-.13,1.15-1,1.06-.54-.05-1.17-.13-1.16.76s.77.62,1.23.62c.66,0,.92.19.91.89,0,2.31,0,4.63,0,6.94a3.1,3.1,0,0,1-.46,1.46Q64,37.37,59.49,46A3.92,3.92,0,0,0,59,47.9c0,3,0,5.91,0,8.87,0,6.66,0,13.33,0,20,0,.95-.25,1.29-1.2,1.2a10.78,10.78,0,0,0-3.19.39A18.1,18.1,0,0,0,40.42,96.26c0,3.35,0,6.71,0,10.06v2.85c-.4-.15-.42-.41-.5-.62-1.46-4-2.85-8.12-4.4-12.14-1.12-2.92-1.77-6-3.47-8.74A15.39,15.39,0,0,0,16.43,80.6c-.95.17-1.26.73-.73,1.52,3.61,5.41,8.23,9.1,15.15,8.76a1.32,1.32,0,0,1,1.56,1c1.71,4.84,3.49,9.66,5.24,14.49.07.19.21.44-.09.65l-.44-.39a15,15,0,0,0-13.66-4c-1.39.25-1.72.82-.94,1.82,4.14,5.32,9.22,8.66,16.34,7.52.43-.06.83-.07,1,.44.48,1.75,1.69,3,2.74,4.42a12.6,12.6,0,0,0,10.67,5.37H85.93A12.38,12.38,0,0,0,98.75,109.4c0-4.51,0-9,0-13.53a16.34,16.34,0,0,0-2.52-9A3.41,3.41,0,0,1,96,83.05c.77-1.72,1.46-2.16,3.38-2.13,6.53.09,11-3.57,14.49-8.72.53-.8.23-1.27-.82-1.45a15,15,0,0,0-12,2.88c-.87.66-1.66,1.44-2.73,2.37,1.71-5.61,3.34-10.92,5-16.24.15-.48.45-.47.82-.47a20.85,20.85,0,0,0,2.86-.12c5.72-1,9.48-4.61,12.32-9.39.57-1,.21-1.45-.93-1.54a15.22,15.22,0,0,0-12.11,4A14.41,14.41,0,0,0,102.19,58.24ZM97.28,70.16c-4.85-1.1-9.48-7.45-9.2-12.61C92.41,58.89,97.82,64.86,97.28,70.16Zm-67,19.34c-4.91.18-10-2.76-12.86-7.53a12.12,12.12,0,0,1,6.3.64,13.94,13.94,0,0,1,7.19,5.85C31.47,89.37,31.1,89.47,30.25,89.5Zm7.62,21.26c-4.62.85-11.44-2.44-13.7-6.71a13.31,13.31,0,0,1,10.33,2.19,14.57,14.57,0,0,1,3.59,3.63C38.32,110.2,38.74,110.6,37.87,110.76Zm19.8,10c-2.77-.16-5.58.32-8.3-.6A10.61,10.61,0,0,1,42,110c0-4.87,0-9.73,0-14.6A16.44,16.44,0,0,1,55.81,79.6c3-.43,3-.43,3,2.55v17.94c0,6.5,0,13,0,19.5C58.86,120.51,58.65,120.87,57.67,120.81Zm14.06-1.16c0,.8-.21,1.13-1.07,1.14-3,.06-3,.09-3.06-2.93,0-4.18-.12-8.36,1.46-12.35a2.5,2.5,0,0,1,.62-1.16,25,25,0,0,1,2,9.45C71.79,115.75,71.68,117.7,71.73,119.65Zm7.14-.54c0,1.69,0,1.69-1.69,1.69-1,0-2-.06-3,0s-1.06-.29-1.06-1.1c0-3.78.19-7.57-.66-11.31a27.29,27.29,0,0,0-2.74-7.34c-.37-.07-.41.23-.5.42a29,29,0,0,0-3.06,11.33c-.12,2.31-.12,4.62-.11,6.93,0,.85-.28,1.11-1.1,1.07-1.2-.06-2.4,0-3.59,0-.65,0-1-.16-.92-.87,0-.2,0-.4,0-.6,0-23.42,0-46.84-.07-70.27,0-2,.94-3.41,1.74-5,2.24-4.41,4.53-8.79,6.8-13.18.18-.34.39-.67.72-1.23,2.83,5.46,5.49,10.72,8.27,15.92a8.73,8.73,0,0,1,1,4.32Q78.86,84.51,78.87,119.11Zm18-26.74a31.16,31.16,0,0,1,.46,6.18c0,3.59,0,7.18,0,10.77A11,11,0,0,1,85.9,120.8c-1.43,0-2.87-.06-4.31,0-1,.05-1.29-.24-1.28-1.25,0-6.51,0-13,0-19.51s0-13,0-19.51c0-.94.23-1.21,1.2-1.19C88.58,79.5,95.54,85.36,96.89,92.37Zm1.48-13.8A13.8,13.8,0,0,1,109.63,72c.79,0,1.57,0,2.71,0-3,4-6.23,6.81-11,7.43a7.12,7.12,0,0,1-2.48.15C98.24,79.41,97.91,79.26,98.37,78.57ZM117.5,49.75c-2.27,4.51-7.65,8.31-12.71,8.13-.57,0-.84-.13-.51-.76C106.72,52.52,111.8,49.05,117.5,49.75Z"/><path class="cls-1" d="M72.91,54.77a25.23,25.23,0,0,0-3.28-10.44,27.29,27.29,0,0,0-3.56,13.46C66,65.9,66.05,74,66,82.1c0,.68.22.9.9.89,1.75,0,3.51,0,5.27,0,.71,0,1-.19,1-.94C73,73,73.47,63.85,72.91,54.77ZM70.49,81.59c-2.88,0-2.88,0-2.88-2.87,0-7.7,0-15.4.06-23.1a22,22,0,0,1,1.92-8,24,24,0,0,1,2.09,9.8c.09,7.62,0,15.24,0,22.86C71.74,81.26,71.52,81.61,70.49,81.59Z"/><path class="cls-1" d="M73,89.94a3.35,3.35,0,0,0-3.51-2.44A3.15,3.15,0,0,0,66.26,90a18.65,18.65,0,0,0,0,6.28,3.38,3.38,0,0,0,3.32,2.89A3.6,3.6,0,0,0,73,96.58a15.36,15.36,0,0,0,.18-3.16A16.09,16.09,0,0,0,73,89.94Zm-1.28,5.9a2.2,2.2,0,0,1-2.2,2,2,2,0,0,1-1.86-2.23c0-.79,0-1.59,0-2.38s0-1.44,0-2.15a2,2,0,0,1,4-.32A43.9,43.9,0,0,1,71.67,95.84Z"/><path class="cls-1" d="M91.4,95.75a3.42,3.42,0,0,0-3.27-3.43,3.47,3.47,0,0,0-3.67,3.3,15.69,15.69,0,0,0,0,1.68c0,1.07-.45,2.44.19,3.12s2.11.12,3,.26,1.87,0,2.7,0,1.08-.17,1-1C91.36,98.39,91.42,97.07,91.4,95.75Zm-3.62,3.51c-1.91,0-1.91,0-1.91-1.86,0-.52,0-1,0-1.56a2.14,2.14,0,0,1,2.17-2.09A2,2,0,0,1,90,95.88c0,.4,0,.8,0,1.2C90,99.26,90,99.26,87.78,99.26Z"/><path class="cls-1" d="M54.68,95.44A3.39,3.39,0,0,0,51,92.32a3.46,3.46,0,0,0-3.22,3.39c0,.48,0,1,0,1.43.08,1.14-.49,2.6.26,3.33s2.14.12,3,.21c1.12,0,2,0,3,0,.5,0,.72-.17.71-.69C54.71,98.47,54.8,97,54.68,95.44Zm-4.36,3.84c-.88,0-1.26-.21-1.13-1.12a7.79,7.79,0,0,0,0-1.08c0-.44,0-.87,0-1.31a1.93,1.93,0,0,1,1.92-2,2.14,2.14,0,0,1,2.15,1.84,4.3,4.3,0,0,1,0,.72C53.32,99.3,53.32,99.27,50.32,99.28Z"/></svg>